<?xml version="1.0" standalone="no"?>
<!DOCTYPE svg PUBLIC "-//W3C//DTD SVG 20010904//EN"
 "http://www.w3.org/TR/2001/REC-SVG-20010904/DTD/svg10.dtd">
<svg version="1.0" xmlns="http://www.w3.org/2000/svg"
 width="769.000000pt" height="509.000000pt" viewBox="0 0 769.000000 509.000000"
 preserveAspectRatio="xMidYMid meet">
<metadata>
Created by potrace 1.13, written by Peter Selinger 2001-2015
</metadata>
<g transform="translate(0.000000,509.000000) scale(0.100000,-0.100000)"
fill="white" stroke="none">
<path d="M4560 4959 c-550 -48 -1055 -355 -1376 -836 -30 -46 -60 -84 -67 -85
-7 -1 -106 -2 -222 -3 -154 -1 -231 -6 -291 -18 -350 -74 -669 -287 -866 -581
-62 -93 -113 -188 -142 -267 l-18 -46 -131 -7 c-218 -11 -403 -59 -582 -148
-322 -162 -567 -447 -683 -795 -50 -147 -57 -206 -57 -458 0 -219 1 -235 27
-326 72 -258 181 -446 364 -630 151 -153 332 -265 534 -333 227 -76 -2 -70
2675 -74 1760 -2 2431 0 2515 8 268 27 506 122 715 285 251 196 411 445 496
773 39 151 49 250 38 381 -47 549 -322 951 -815 1190 l-111 54 -6 171 c-15
457 -179 841 -502 1175 -326 337 -727 530 -1185 571 -129 11 -173 11 -310 -1z
m425 -488 c207 -46 428 -142 570 -249 254 -189 415 -441 513 -802 26 -94 26
-99 24 -397 l-2 -302 25 -17 c13 -9 74 -34 135 -55 250 -88 349 -138 464 -236
343 -288 409 -806 152 -1191 -55 -82 -161 -191 -240 -244 -73 -50 -201 -111
-281 -133 -99 -28 -628 -34 -2875 -31 -1955 2 -2079 3 -2149 20 -314 75 -522
235 -652 501 -67 137 -92 248 -92 400 0 436 304 812 725 899 92 19 254 21 430
4 166 -15 168 -14 203 94 53 160 125 334 171 413 55 94 200 242 286 293 224
133 438 164 733 107 205 -39 227 -41 246 -19 9 11 52 82 94 159 43 77 100 174
128 215 66 98 248 278 362 358 157 111 356 196 530 227 115 20 381 13 500 -14z"/>
<path d="M2895 3356 c-72 -33 -241 -246 -328 -414 -97 -188 -155 -392 -178
-631 -25 -251 40 -581 161 -821 78 -155 251 -384 324 -429 65 -40 175 -18 207
41 44 82 31 130 -67 244 -226 265 -324 523 -324 859 0 330 111 618 331 861 62
68 82 109 82 162 0 100 -114 170 -208 128z"/>
<path d="M4920 3352 c-49 -24 -80 -75 -80 -129 0 -56 8 -70 94 -170 135 -156
232 -338 281 -529 109 -420 0 -859 -295 -1188 -70 -78 -80 -99 -80 -163 0 -41
5 -50 44 -89 40 -41 47 -44 97 -44 68 0 98 18 175 105 189 214 311 457 371
744 23 111 27 149 27 316 0 169 -3 204 -27 319 -64 298 -195 551 -395 760 -83
86 -140 104 -212 68z"/>
<path d="M3375 2874 c-82 -42 -199 -206 -254 -354 -62 -169 -73 -370 -28 -541
47 -178 169 -378 270 -439 76 -47 180 -11 212 73 23 62 9 105 -68 209 -99 132
-138 242 -139 389 -1 141 51 274 151 391 27 32 55 74 61 93 39 119 -95 236
-205 179z"/>
<path d="M4440 2872 c-52 -26 -80 -74 -80 -138 0 -46 4 -58 40 -101 108 -130
160 -244 174 -383 15 -145 -47 -330 -149 -449 -54 -64 -65 -87 -65 -143 0 -80
63 -138 150 -138 55 0 90 20 143 82 97 115 169 253 204 395 25 103 23 333 -5
434 -39 144 -107 268 -206 376 -75 82 -135 101 -206 65z"/>
<path d="M3884 2444 c-101 -37 -166 -130 -166 -238 0 -195 193 -317 367 -231
68 33 111 84 131 154 36 121 -18 245 -131 303 -51 27 -147 33 -201 12z"/>
</g>
</svg>
